<?xml version="1.0" encoding="UTF-8"?>
<svg id="Layer_1" xmlns="http://www.w3.org/2000/svg" xmlns:xlink="http://www.w3.org/1999/xlink" viewBox="0 0 610 321.14">
  <defs>
    <style>
      .cls-1 {
        fill: url(#linear-gradient-8);
      }

      .cls-2 {
        fill: url(#linear-gradient-7);
      }

      .cls-3 {
        fill: url(#linear-gradient-5);
      }

      .cls-4 {
        fill: url(#linear-gradient-6);
      }

      .cls-5 {
        fill: url(#linear-gradient-9);
      }

      .cls-6 {
        fill: url(#linear-gradient-4);
      }

      .cls-7 {
        fill: url(#linear-gradient-3);
      }

      .cls-8 {
        fill: url(#linear-gradient-2);
      }

      .cls-9 {
        fill: url(#linear-gradient);
      }

      .cls-10 {
        fill: #664d32;
      }

      .cls-11 {
        fill: url(#linear-gradient-43);
      }

      .cls-12 {
        fill: url(#linear-gradient-40);
      }

      .cls-13 {
        fill: url(#linear-gradient-41);
      }

      .cls-14 {
        fill: url(#linear-gradient-42);
      }

      .cls-15 {
        fill: url(#linear-gradient-49);
      }

      .cls-16 {
        fill: url(#linear-gradient-48);
      }

      .cls-17 {
        fill: url(#linear-gradient-45);
      }

      .cls-18 {
        fill: url(#linear-gradient-47);
      }

      .cls-19 {
        fill: url(#linear-gradient-44);
      }

      .cls-20 {
        fill: url(#linear-gradient-46);
      }

      .cls-21 {
        fill: url(#linear-gradient-10);
      }

      .cls-22 {
        fill: url(#linear-gradient-11);
      }

      .cls-23 {
        fill: url(#linear-gradient-12);
      }

      .cls-24 {
        fill: url(#linear-gradient-13);
      }

      .cls-25 {
        fill: url(#linear-gradient-19);
      }

      .cls-26 {
        fill: url(#linear-gradient-14);
      }

      .cls-27 {
        fill: url(#linear-gradient-21);
      }

      .cls-28 {
        fill: url(#linear-gradient-20);
      }

      .cls-29 {
        fill: url(#linear-gradient-22);
      }

      .cls-30 {
        fill: url(#linear-gradient-23);
      }

      .cls-31 {
        fill: url(#linear-gradient-28);
      }

      .cls-32 {
        fill: url(#linear-gradient-25);
      }

      .cls-33 {
        fill: url(#linear-gradient-32);
      }

      .cls-34 {
        fill: url(#linear-gradient-31);
      }

      .cls-35 {
        fill: url(#linear-gradient-33);
      }

      .cls-36 {
        fill: url(#linear-gradient-30);
      }

      .cls-37 {
        fill: url(#linear-gradient-15);
      }

      .cls-38 {
        fill: url(#linear-gradient-16);
      }

      .cls-39 {
        fill: url(#linear-gradient-17);
      }

      .cls-40 {
        fill: url(#linear-gradient-18);
      }

      .cls-41 {
        fill: url(#linear-gradient-35);
      }

      .cls-42 {
        fill: url(#linear-gradient-34);
      }

      .cls-43 {
        fill: url(#linear-gradient-36);
      }

      .cls-44 {
        fill: url(#linear-gradient-38);
      }

      .cls-45 {
        fill: url(#linear-gradient-27);
      }

      .cls-46 {
        fill: url(#linear-gradient-24);
      }

      .cls-47 {
        fill: url(#linear-gradient-26);
      }

      .cls-48 {
        fill: url(#linear-gradient-29);
      }

      .cls-49 {
        fill: url(#linear-gradient-37);
      }

      .cls-50 {
        fill: url(#linear-gradient-39);
      }

      .cls-51 {
        fill: url(#linear-gradient-57);
      }

      .cls-52 {
        fill: url(#linear-gradient-58);
      }

      .cls-53 {
        fill: url(#linear-gradient-59);
      }

      .cls-54 {
        fill: url(#linear-gradient-53);
      }

      .cls-55 {
        fill: url(#linear-gradient-54);
      }

      .cls-56 {
        fill: url(#linear-gradient-55);
      }

      .cls-57 {
        fill: url(#linear-gradient-56);
      }

      .cls-58 {
        fill: url(#linear-gradient-50);
      }

      .cls-59 {
        fill: url(#linear-gradient-51);
      }

      .cls-60 {
        fill: url(#linear-gradient-52);
      }

      .cls-61 {
        fill: url(#linear-gradient-67);
      }

      .cls-62 {
        fill: url(#linear-gradient-68);
      }

      .cls-63 {
        fill: url(#linear-gradient-69);
      }

      .cls-64 {
        fill: url(#linear-gradient-63);
      }

      .cls-65 {
        fill: url(#linear-gradient-64);
      }

      .cls-66 {
        fill: url(#linear-gradient-65);
      }

      .cls-67 {
        fill: url(#linear-gradient-66);
      }

      .cls-68 {
        fill: url(#linear-gradient-60);
      }

      .cls-69 {
        fill: url(#linear-gradient-61);
      }

      .cls-70 {
        fill: url(#linear-gradient-62);
      }

      .cls-71 {
        fill: url(#linear-gradient-75);
      }

      .cls-72 {
        fill: url(#linear-gradient-72);
      }

      .cls-73 {
        fill: url(#linear-gradient-74);
      }

      .cls-74 {
        fill: url(#linear-gradient-76);
      }

      .cls-75 {
        fill: url(#linear-gradient-71);
      }

      .cls-76 {
        fill: url(#linear-gradient-73);
      }

      .cls-77 {
        fill: url(#linear-gradient-70);
      }
    </style>
    <linearGradient id="linear-gradient" x1="88.53" y1="124.35" x2="88.53" y2="232.94" gradientUnits="userSpaceOnUse">
      <stop offset=".16" stop-color="#322010"/>
      <stop offset="1" stop-color="#010101" stop-opacity="0"/>
    </linearGradient>
    <linearGradient id="linear-gradient-2" x1="105.04" y1="104.18" x2="105.04" y2="212.77" xlink:href="#linear-gradient"/>
    <linearGradient id="linear-gradient-3" x1="121.56" y1="140.55" x2="121.56" y2="249.14" xlink:href="#linear-gradient"/>
    <linearGradient id="linear-gradient-4" x1="138.08" y1="125.74" x2="138.08" y2="234.34" xlink:href="#linear-gradient"/>
    <linearGradient id="linear-gradient-5" x1="154.6" y1="102.83" x2="154.6" y2="211.43" xlink:href="#linear-gradient"/>
    <linearGradient id="linear-gradient-6" x1="171.12" y1="104.28" x2="171.12" y2="212.88" xlink:href="#linear-gradient"/>
    <linearGradient id="linear-gradient-7" x1="187.63" y1="123.73" x2="187.63" y2="232.33" xlink:href="#linear-gradient"/>
    <linearGradient id="linear-gradient-8" x1="204.15" y1="103.72" x2="204.15" y2="212.31" xlink:href="#linear-gradient"/>
    <linearGradient id="linear-gradient-9" x1="220.67" y1="118.16" x2="220.67" y2="226.76" xlink:href="#linear-gradient"/>
    <linearGradient id="linear-gradient-10" x1="237.19" y1="103.67" x2="237.19" y2="212.26" xlink:href="#linear-gradient"/>
    <linearGradient id="linear-gradient-11" x1="253.71" y1="136.77" x2="253.71" y2="230.14" xlink:href="#linear-gradient"/>
    <linearGradient id="linear-gradient-12" x1="270.22" y1="86.54" x2="270.22" y2="260.85" xlink:href="#linear-gradient"/>
    <linearGradient id="linear-gradient-13" x1="286.74" y1="58.11" x2="286.74" y2="232.42" xlink:href="#linear-gradient"/>
    <linearGradient id="linear-gradient-14" x1="303.26" y1="22.86" x2="303.26" y2="267.75" xlink:href="#linear-gradient"/>
    <linearGradient id="linear-gradient-15" x1="319.78" y1="0" x2="319.78" y2="244.9" xlink:href="#linear-gradient"/>
    <linearGradient id="linear-gradient-16" x1="336.29" y1="52.24" x2="336.29" y2="297.14" xlink:href="#linear-gradient"/>
    <linearGradient id="linear-gradient-17" x1="352.81" y1="116.41" x2="352.81" y2="225" xlink:href="#linear-gradient"/>
    <linearGradient id="linear-gradient-18" x1="369.33" y1="136.82" x2="369.33" y2="311.14" xlink:href="#linear-gradient"/>
    <linearGradient id="linear-gradient-19" x1="385.85" y1="122.47" x2="385.85" y2="296.79" xlink:href="#linear-gradient"/>
    <linearGradient id="linear-gradient-20" x1="402.37" y1="103.35" x2="402.37" y2="244.54" xlink:href="#linear-gradient"/>
    <linearGradient id="linear-gradient-21" x1="418.88" y1="103.94" x2="418.88" y2="245.14" xlink:href="#linear-gradient"/>
    <linearGradient id="linear-gradient-22" x1="435.4" x2="435.4" xlink:href="#linear-gradient"/>
    <linearGradient id="linear-gradient-23" x1="451.92" y1="103.4" x2="451.92" y2="211.99" xlink:href="#linear-gradient"/>
    <linearGradient id="linear-gradient-24" x1="468.44" y1="124.76" x2="468.44" y2="233.35" xlink:href="#linear-gradient"/>
    <linearGradient id="linear-gradient-25" x1="484.96" y1="140.12" x2="484.96" y2="248.72" xlink:href="#linear-gradient"/>
    <linearGradient id="linear-gradient-26" x1="501.47" x2="501.47" xlink:href="#linear-gradient"/>
    <linearGradient id="linear-gradient-27" x1="4" y1="236.14" x2="4" y2="311.14" xlink:href="#linear-gradient"/>
    <linearGradient id="linear-gradient-28" x1="17" y1="243.14" x2="17" y2="318.14" xlink:href="#linear-gradient"/>
    <linearGradient id="linear-gradient-29" x1="29" y1="244.14" x2="29" y2="319.14" xlink:href="#linear-gradient"/>
    <linearGradient id="linear-gradient-30" x1="41" y1="236.14" x2="41" y2="311.14" xlink:href="#linear-gradient"/>
    <linearGradient id="linear-gradient-31" x1="54" y1="224.14" x2="54" y2="299.14" xlink:href="#linear-gradient"/>
    <linearGradient id="linear-gradient-32" x1="66" y1="225.14" x2="66" y2="300.14" xlink:href="#linear-gradient"/>
    <linearGradient id="linear-gradient-33" x1="78" y1="236.14" x2="78" y2="311.14" xlink:href="#linear-gradient"/>
    <linearGradient id="linear-gradient-34" x1="91" y1="225.14" x2="91" y2="300.14" xlink:href="#linear-gradient"/>
    <linearGradient id="linear-gradient-35" x1="103" y1="226.14" x2="103" y2="301.14" xlink:href="#linear-gradient"/>
    <linearGradient id="linear-gradient-36" x1="115" y1="224.14" x2="115" y2="299.14" xlink:href="#linear-gradient"/>
    <linearGradient id="linear-gradient-37" x1="128" y1="215.14" x2="128" y2="290.14" xlink:href="#linear-gradient"/>
    <linearGradient id="linear-gradient-38" x1="140" y1="197.14" x2="140" y2="272.14" xlink:href="#linear-gradient"/>
    <linearGradient id="linear-gradient-39" x1="151" y1="214.14" x2="151" y2="289.14" xlink:href="#linear-gradient"/>
    <linearGradient id="linear-gradient-40" x1="164" y1="208.14" x2="164" y2="283.14" xlink:href="#linear-gradient"/>
    <linearGradient id="linear-gradient-41" x1="176" y1="197.14" x2="176" y2="272.14" xlink:href="#linear-gradient"/>
    <linearGradient id="linear-gradient-42" x1="188" y1="233.14" x2="188" y2="308.14" xlink:href="#linear-gradient"/>
    <linearGradient id="linear-gradient-43" x1="201" y1="215.14" x2="201" y2="290.14" xlink:href="#linear-gradient"/>
    <linearGradient id="linear-gradient-44" x1="213" y1="208.14" x2="213" y2="283.14" xlink:href="#linear-gradient"/>
    <linearGradient id="linear-gradient-45" x1="225" y1="224.14" x2="225" y2="299.14" xlink:href="#linear-gradient"/>
    <linearGradient id="linear-gradient-46" x1="238" y1="190.14" x2="238" y2="265.14" xlink:href="#linear-gradient"/>
    <linearGradient id="linear-gradient-47" x1="250" y1="236.14" x2="250" y2="311.14" xlink:href="#linear-gradient"/>
    <linearGradient id="linear-gradient-48" x1="262" y1="225.14" x2="262" y2="300.14" xlink:href="#linear-gradient"/>
    <linearGradient id="linear-gradient-49" x1="275" y1="235.14" x2="275" y2="310.14" xlink:href="#linear-gradient"/>
    <linearGradient id="linear-gradient-50" x1="287" y1="244.14" x2="287" y2="319.14" xlink:href="#linear-gradient"/>
    <linearGradient id="linear-gradient-51" x1="299" y1="236.14" x2="299" y2="311.14" xlink:href="#linear-gradient"/>
    <linearGradient id="linear-gradient-52" x1="312" y1="236.14" x2="312" y2="311.14" xlink:href="#linear-gradient"/>
    <linearGradient id="linear-gradient-53" x1="324" y1="244.14" x2="324" y2="319.14" xlink:href="#linear-gradient"/>
    <linearGradient id="linear-gradient-54" x1="336" y1="244.14" x2="336" y2="319.14" xlink:href="#linear-gradient"/>
    <linearGradient id="linear-gradient-55" x1="349" y1="236.14" x2="349" y2="311.14" xlink:href="#linear-gradient"/>
    <linearGradient id="linear-gradient-56" x1="361" y1="225.14" x2="361" y2="300.14" xlink:href="#linear-gradient"/>
    <linearGradient id="linear-gradient-57" x1="373" y1="224.14" x2="373" y2="299.14" xlink:href="#linear-gradient"/>
    <linearGradient id="linear-gradient-58" x1="386" y1="236.14" x2="386" y2="311.14" xlink:href="#linear-gradient"/>
    <linearGradient id="linear-gradient-59" x1="398" y1="224.14" x2="398" y2="299.14" xlink:href="#linear-gradient"/>
    <linearGradient id="linear-gradient-60" x1="410" y1="232.14" x2="410" y2="307.14" xlink:href="#linear-gradient"/>
    <linearGradient id="linear-gradient-61" x1="423" y1="223.14" x2="423" y2="298.14" xlink:href="#linear-gradient"/>
    <linearGradient id="linear-gradient-62" x1="435" y1="214.14" x2="435" y2="289.14" xlink:href="#linear-gradient"/>
    <linearGradient id="linear-gradient-63" x1="446" y1="199.14" x2="446" y2="274.14" xlink:href="#linear-gradient"/>
    <linearGradient id="linear-gradient-64" x1="459" y1="213.14" x2="459" y2="288.14" xlink:href="#linear-gradient"/>
    <linearGradient id="linear-gradient-65" x1="471" y1="202.14" x2="471" y2="277.14" xlink:href="#linear-gradient"/>
    <linearGradient id="linear-gradient-66" x1="483" y1="198.14" x2="483" y2="273.14" xlink:href="#linear-gradient"/>
    <linearGradient id="linear-gradient-67" x1="496" y1="231.14" x2="496" y2="306.14" xlink:href="#linear-gradient"/>
    <linearGradient id="linear-gradient-68" x1="508" y1="214.14" x2="508" y2="289.14" xlink:href="#linear-gradient"/>
    <linearGradient id="linear-gradient-69" x1="520" y1="209.14" x2="520" y2="284.14" xlink:href="#linear-gradient"/>
    <linearGradient id="linear-gradient-70" x1="533" y1="224.14" x2="533" y2="299.14" xlink:href="#linear-gradient"/>
    <linearGradient id="linear-gradient-71" x1="545" y1="225.14" x2="545" y2="300.14" xlink:href="#linear-gradient"/>
    <linearGradient id="linear-gradient-72" x1="557" y1="236.14" x2="557" y2="311.14" xlink:href="#linear-gradient"/>
    <linearGradient id="linear-gradient-73" x1="570" y1="225.14" x2="570" y2="300.14" xlink:href="#linear-gradient"/>
    <linearGradient id="linear-gradient-74" x1="593" y1="246.14" x2="593" y2="321.14" xlink:href="#linear-gradient"/>
    <linearGradient id="linear-gradient-75" x1="606" y1="235.14" x2="606" y2="310.14" xlink:href="#linear-gradient"/>
    <linearGradient id="linear-gradient-76" x1="582" y1="206.14" x2="582" y2="281.14" xlink:href="#linear-gradient"/>
  </defs>
  <rect class="cls-9" x="84" y="124.35" width="9.05" height="108.6"/>
  <rect class="cls-8" x="100.52" y="104.18" width="9.05" height="108.6"/>
  <rect class="cls-7" x="117.04" y="140.55" width="9.05" height="108.6"/>
  <rect class="cls-6" x="133.55" y="125.74" width="9.05" height="108.6"/>
  <rect class="cls-3" x="150.07" y="102.83" width="9.05" height="108.6"/>
  <rect class="cls-4" x="166.59" y="104.28" width="9.05" height="108.6"/>
  <rect class="cls-2" x="183.11" y="123.73" width="9.05" height="108.6"/>
  <rect class="cls-1" x="199.63" y="103.72" width="9.05" height="108.6"/>
  <rect class="cls-5" x="216.14" y="118.16" width="9.05" height="108.6"/>
  <rect class="cls-21" x="232.66" y="103.67" width="9.05" height="108.6"/>
  <rect class="cls-22" x="249.18" y="136.77" width="9.05" height="93.38"/>
  <rect class="cls-23" x="265.7" y="86.54" width="9.05" height="174.32"/>
  <rect class="cls-24" x="282.21" y="58.11" width="9.05" height="174.32"/>
  <rect class="cls-26" x="298.73" y="22.86" width="9.05" height="244.9"/>
  <rect class="cls-37" x="315.25" width="9.05" height="244.9"/>
  <rect class="cls-38" x="331.77" y="52.24" width="9.05" height="244.9"/>
  <rect class="cls-39" x="348.29" y="116.41" width="9.05" height="108.6"/>
  <rect class="cls-40" x="364.8" y="136.82" width="9.05" height="174.32"/>
  <rect class="cls-25" x="381.32" y="122.47" width="9.05" height="174.32"/>
  <rect class="cls-28" x="397.84" y="103.35" width="9.05" height="141.2"/>
  <rect class="cls-27" x="414.36" y="103.94" width="9.05" height="141.2"/>
  <rect class="cls-29" x="430.88" y="124.35" width="9.05" height="108.6"/>
  <rect class="cls-30" x="447.39" y="103.4" width="9.05" height="108.6"/>
  <rect class="cls-46" x="463.91" y="124.76" width="9.05" height="108.6"/>
  <rect class="cls-32" x="480.43" y="140.12" width="9.05" height="108.6"/>
  <rect class="cls-47" x="496.95" y="124.35" width="9.05" height="108.6"/>
  <g>
    <rect class="cls-45" y="236.14" width="8" height="75"/>
    <rect class="cls-31" x="13" y="243.14" width="8" height="75"/>
    <rect class="cls-48" x="25" y="244.14" width="8" height="75"/>
    <rect class="cls-36" x="37" y="236.14" width="8" height="75"/>
    <rect class="cls-34" x="50" y="224.14" width="8" height="75"/>
    <rect class="cls-33" x="62" y="225.14" width="8" height="75"/>
    <rect class="cls-35" x="74" y="236.14" width="8" height="75"/>
    <rect class="cls-42" x="87" y="225.14" width="8" height="75"/>
    <rect class="cls-41" x="99" y="226.14" width="8" height="75"/>
    <rect class="cls-43" x="111" y="224.14" width="8" height="75"/>
    <rect class="cls-49" x="124" y="215.14" width="8" height="75"/>
    <rect class="cls-44" x="136" y="197.14" width="8" height="75"/>
    <rect class="cls-50" x="147" y="214.14" width="8" height="75"/>
    <rect class="cls-12" x="160" y="208.14" width="8" height="75"/>
    <rect class="cls-13" x="172" y="197.14" width="8" height="75"/>
    <rect class="cls-14" x="184" y="233.14" width="8" height="75"/>
    <rect class="cls-11" x="197" y="215.14" width="8" height="75"/>
    <rect class="cls-19" x="209" y="208.14" width="8" height="75"/>
    <rect class="cls-17" x="221" y="224.14" width="8" height="75"/>
    <rect class="cls-20" x="234" y="190.14" width="8" height="75"/>
    <rect class="cls-18" x="246" y="236.14" width="8" height="75"/>
    <rect class="cls-16" x="258" y="225.14" width="8" height="75"/>
    <rect class="cls-15" x="271" y="235.14" width="8" height="75"/>
    <rect class="cls-58" x="283" y="244.14" width="8" height="75"/>
    <rect class="cls-59" x="295" y="236.14" width="8" height="75"/>
    <rect class="cls-60" x="308" y="236.14" width="8" height="75"/>
    <rect class="cls-54" x="320" y="244.14" width="8" height="75"/>
    <rect class="cls-55" x="332" y="244.14" width="8" height="75"/>
    <rect class="cls-56" x="345" y="236.14" width="8" height="75"/>
    <rect class="cls-57" x="357" y="225.14" width="8" height="75"/>
    <rect class="cls-51" x="369" y="224.14" width="8" height="75"/>
    <rect class="cls-52" x="382" y="236.14" width="8" height="75"/>
    <rect class="cls-53" x="394" y="224.14" width="8" height="75"/>
    <rect class="cls-68" x="406" y="232.14" width="8" height="75"/>
    <rect class="cls-69" x="419" y="223.14" width="8" height="75"/>
    <rect class="cls-70" x="431" y="214.14" width="8" height="75"/>
    <rect class="cls-64" x="442" y="199.14" width="8" height="75"/>
    <rect class="cls-65" x="455" y="213.14" width="8" height="75"/>
    <rect class="cls-66" x="467" y="202.14" width="8" height="75"/>
    <rect class="cls-67" x="479" y="198.14" width="8" height="75"/>
    <rect class="cls-61" x="492" y="231.14" width="8" height="75"/>
    <rect class="cls-62" x="504" y="214.14" width="8" height="75"/>
    <rect class="cls-63" x="516" y="209.14" width="8" height="75"/>
    <rect class="cls-77" x="529" y="224.14" width="8" height="75"/>
    <rect class="cls-75" x="541" y="225.14" width="8" height="75"/>
    <rect class="cls-72" x="553" y="236.14" width="8" height="75"/>
    <rect class="cls-76" x="566" y="225.14" width="8" height="75"/>
    <rect class="cls-73" x="589" y="246.14" width="8" height="75"/>
    <rect class="cls-71" x="602" y="235.14" width="8" height="75"/>
    <rect class="cls-74" x="578" y="206.14" width="8" height="75"/>
  </g>
  <polygon class="cls-10" points="211.1 223.29 178.99 208.24 145.07 223.2 144.72 223.1 93.72 208.1 94.28 206.18 144.93 221.08 179.01 206.04 210.9 220.99 253.08 191.87 262.99 200.79 320 147.77 338.15 164.91 359.11 152.93 377.94 168.79 387.09 159.64 405.22 182.8 426.02 168.92 437.22 177.07 468.79 170.16 469.21 172.12 436.78 179.21 425.98 171.36 404.78 185.49 386.91 162.65 378.06 171.5 358.89 155.36 337.85 167.38 320 150.51 263.01 203.5 252.92 194.41 211.1 223.29"/>
  <path class="cls-10" d="M60.73,284.84c-18.22,0-27.27-5.47-27.91-5.88l1.06-1.69c.07.04,6.81,4.17,20.35,5.24,12.52.99,33.56-.52,62.72-13.31,26.48-11.61,53.02-5.24,81.13,1.5,32.74,7.86,69.84,16.76,113.89-1.51,40.16-16.65,55.66-6.31,69.34,2.82,14.44,9.63,25.84,17.25,62.45-9.7,34.9-25.69,50.21-15.36,67.94-3.39,19.58,13.22,41.78,28.21,97.23,2.29l.85,1.81c-56.49,26.39-80.17,10.4-99.2-2.45-17.8-12.02-31.86-21.51-65.63,3.34-37.74,27.78-50.25,19.42-64.74,9.75-13.26-8.85-28.29-18.88-67.47-2.64-44.65,18.51-82.09,9.53-115.12,1.6-27.77-6.66-53.99-12.96-79.86-1.61-24.41,10.7-43.31,13.81-57.02,13.81Z"/>
</svg>